# xmcd
#
# Track frame offsets:
#	150
#	16814
#	30946
#	45674
#	65187
#	84198
#	99919
#	116070
#	134260
#	150458
#	167465
#	187190
#	203875
#	220762
#
# Disc length: 3148 seconds
#
# Revision: 0
# Processed by: cddbd v1.5.2PL0 Copyright (c) Steve Scherf et al.
# Submitted via: EasyCDDAExtractor 9.1.1.1
#
DISCID=b00c4a0e
DTITLE=Lilu - Загляни мне в глаза
DYEAR=2005
DGENRE=pop
TTITLE0=Кто ты такой
TTITLE1=Однажды ты придешь навсегда
TTITLE2=Тысячу лет
TTITLE3=Одинокой птицей
TTITLE4=Феноменально
TTITLE5=Знаешь, я одинока
TTITLE6=Отлично!
TTITLE7=Почему так трудно все забытть?
TTITLE8=О тебе
TTITLE9=Несовпадение
TTITLE10=Загляни мне в глаза
TTITLE11=Все хорошее
TTITLE12=Кто ты такой (re-mix)
TTITLE13=О тебе (acoustic)
EXTD=
EXTT0=
EXTT1=
EXTT2=
EXTT3=
EXTT4=
EXTT5=
EXTT6=
EXTT7=
EXTT8=
EXTT9=
EXTT10=
EXTT11=
EXTT12=
EXTT13=
PLAYORDER=
